<?xml version="1.0" encoding="UTF-8" standalone="no"?>
<!DOCTYPE svg PUBLIC "-//W3C//DTD SVG 1.1//EN" "http://www.w3.org/Graphics/SVG/1.1/DTD/svg11.dtd">
<svg width="456" height="456" xmlns="http://www.w3.org/2000/svg" fill="#000000">
  <path id="svg_1" stroke-width="0.83838" fill-rule="nonzero" fill="#ffffff" d="m344.50037,354.60863c-2.70293,0 -5.00091,-0.90042 -6.89313,-2.70209c-1.89221,-1.84778 -2.8379,-4.04181 -2.8379,-6.58209c0,-2.58722 0.94569,-4.80389 2.8379,-6.65167c1.89222,-1.84778 4.1902,-2.77167 6.89313,-2.77167c2.74819,0 5.06798,0.92389 6.96019,2.77167c1.93749,1.84778 2.90581,4.06445 2.90581,6.65167c0,2.54028 -0.96832,4.73431 -2.90581,6.58209c-1.89221,1.80167 -4.212,2.70209 -6.96019,2.70209z"/>
  <path stroke="null" id="svg_2" stroke-width="0.83838" fill-rule="nonzero" fill="#ffffff" d="m111,278.00001l65,0l0,65a13,13 0 0 0 13,13l78,0a13,13 0 0 0 13,-13l0,-65l65,0a13,13 0 0 0 13,-13l0,-78a13,13 0 0 0 -13,-13l-65,0l0,-65a13,13 0 0 0 -13,-13l-78,0a13,13 0 0 0 -13,13l0,65l-65,0a13,13 0 0 0 -13,13l0,78a13,13 0 0 0 13,13zm13,-78l65,0a13,13 0 0 0 13,-13l0,-65l52,0l0,65a13,13 0 0 0 13,13l65,0l0,52l-65,0a13,13 0 0 0 -13,13l0,65l-52,0l0,-65a13,13 0 0 0 -13,-13l-65,0l0,-52z"/>
</svg>